<?xml version="1.0" encoding="utf-8"?>
<!-- Generator: Adobe Illustrator 25.2.3, SVG Export Plug-In . SVG Version: 6.00 Build 0)  -->
<svg version="1.1" xmlns="http://www.w3.org/2000/svg" xmlns:xlink="http://www.w3.org/1999/xlink" x="0px" y="0px"
	 viewBox="0 0 512 512" style="enable-background:new 0 0 512 512;" xml:space="preserve">
<style type="text/css">
	.st0{display:none;}
	.st1{fill:#FFFFFF;}
	.st2{fill:#7171DB;}
	.st3{fill:#3333CC;}
</style>
<g id="Слой_2__x28_копия_x29_">
	<rect class="st0" width="512" height="512"/>
</g>
<g id="Слой_2">
</g>
<g id="Слой_1">
	<path class="st1" d="M424.3,512H87.7C39.2,512,0,472.8,0,424.3V87.7C0,39.2,39.2,0,87.7,0h336.7C472.8,0,512,39.2,512,87.7v336.7
		C512,472.8,472.8,512,424.3,512z"/>
	<path class="st2" d="M95.7,202.4c2.6,33.2,23.9,58.9,46.4,77.2c0.4-0.3,1-0.9,1.9-1.6c12.4-10.2,26.9-10.7,32.1-10.9
		c29.7-1,66,23.5,103.1,48.9l2.1,1.4c14.9-8.1,26-21.3,36.6-34.9c-44.9-56.9-147.1-154-197.5-133c-5.5,2.3-13.5,7.3-21,19.8
		C96.1,180.1,94.9,191.3,95.7,202.4z"/>
	<path class="st2" d="M408.1,313.8c-4.4,1.9-19,7.9-36.6,5.2c-17.2-2.6-30.9-12.4-40.4-21.6c-15.4,7.9-29.6,18.1-41.1,26.3
		c30.5,22.5,56.9,47.1,90.1,40.5c5.5-1.1,10.9-3,15.9-5.6C404.4,342.2,408.6,326.5,408.1,313.8L408.1,313.8z"/>
	<path class="st3" d="M99.2,169.4c-3.1,10.7-4.3,21.9-3.5,33c5.5,69.8,93.7,106.7,101.6,109.9c24.4,9.8,39.9,15.4,60.5,12.7
		c59.4-7.6,66.8-84.6,123.3-91.3c24.7-2.9,54,8.2,63.2,29.4c11.3,26.1-5.6,69.1-48.3,95.6c13.8-26.7,16.4-51.6,5.7-64.3
		c-5.4-6.4-13-8.3-18.7-9.1c-38.8-5.1-81,30.9-104,46.1c-64.6,42.7-168.1,46.6-201.6,2.3C39.4,283.4,95.8,175.8,99.2,169.4z"/>
</g>
</svg>
