<svg xmlns="http://www.w3.org/2000/svg" viewBox="0 0 512 215"><defs><style>.cls-1{opacity:0.3;}.cls-2{fill:#fff;}.cls-3{fill:#f1f1f1;}</style></defs><g id="Слой_1" data-name="Слой 1"><g class="cls-1"><path class="cls-2" d="M41.9,54.75c3.48,32.63,31.92,58,61.94,75.87.48-.32,1.35-.9,2.47-1.59,16.51-10,35.94-10.53,42.88-10.7,39.69-1,88.15,23.11,137.63,48.13l2.81,1.42c19.91-8,34.69-21,48.86-34.3C278.5,77.69,142.08-17.79,74.7,2.88c-7.37,2.26-18,7.16-28.08,19.45A68.63,68.63,0,0,0,41.9,54.75Z"/><path class="cls-2" d="M459.19,164.33c-5.9,1.84-25.43,7.73-48.93,5.13-23-2.53-41.23-12.18-54-21.2C335.73,156,316.75,166,301.37,174.08c40.74,22.08,76.05,46.35,120.29,39.85a102.73,102.73,0,0,0,21.25-5.5c11.32-16.17,17-31.68,16.33-44.12Z"/></g><path class="cls-3" d="M46.62,22.33A71,71,0,0,0,41.9,54.75C48.93,124.53,170.23,158.63,179,161c26,7,48.46,13.07,78,9,78.52-10.82,92.4-77.4,166-84.5,31.54-3,71.26,6.52,84.42,28.91,15.07,25.65-7.51,68-64.54,94,18.38-26.25,21.84-50.78,7.65-63.21-7.16-6.28-17.36-8.18-25-8.93-51.83-5-108.2,30.37-138.84,45.3-86.26,42-224.54,45.77-269.18,2.29C-33.25,134.42,42,28.61,46.62,22.33Z"/></g></svg>