<svg id="bb9954dc-e058-4af8-8e8f-7e829c0cefad"  xmlns="http://www.w3.org/2000/svg" width="440.3949" height="100.2558" viewBox="0 0 440.3949 100.2558"><path d="M124.6118,68.65V25.45h26.01v7.23h-18.78V43.45h15.18v7.2h-15.18v18Z" transform="translate(-3.4722 -0.3721)" style="fill:#fff"/><path d="M169.4312,69.55a16.1145,16.1145,0,0,1-8.49-2.19,14.9038,14.9038,0,0,1-5.625-6.045,19.0072,19.0072,0,0,1-1.9951-8.8652,18.7783,18.7783,0,0,1,2.04-8.94,15.0435,15.0435,0,0,1,5.67-6,17.5422,17.5422,0,0,1,16.92.03,15.0183,15.0183,0,0,1,5.64,6.045,18.9,18.9,0,0,1,2.01,8.8647,18.8453,18.8453,0,0,1-2.0254,8.895,15.0124,15.0124,0,0,1-5.6548,6.03A16.2043,16.2043,0,0,1,169.4312,69.55Zm0-6.78q4.32,0,6.42-2.88a12.324,12.324,0,0,0,2.1-7.44,12.1251,12.1251,0,0,0-2.13-7.5146,7.5171,7.5171,0,0,0-6.39-2.8052,8.1865,8.1865,0,0,0-4.7847,1.3052,7.6509,7.6509,0,0,0-2.7749,3.63,14.8567,14.8567,0,0,0-.9,5.3848,12.0619,12.0619,0,0,0,2.145,7.5151A7.4567,7.4567,0,0,0,169.4312,62.77Z" transform="translate(-3.4722 -0.3721)" style="fill:#fff"/><path d="M192.2017,68.65V36.25h6.39v7.89l-.78-1.02a11.5415,11.5415,0,0,1,1.605-2.9551,8.75,8.75,0,0,1,2.415-2.205,10.3326,10.3326,0,0,1,2.6548-1.2749,12.8586,12.8586,0,0,1,5.9551-.4351V43a9.2136,9.2136,0,0,0-3.3149-.27,7.6489,7.6489,0,0,0-3.375,1.05,7.3848,7.3848,0,0,0-2.4449,2.07,8.5792,8.5792,0,0,0-1.395,2.8647,12.7821,12.7821,0,0,0-.45,3.4649V68.65Z" transform="translate(-3.4722 -0.3721)" style="fill:#fff"/><path d="M216.0806,68.65V36.25h6.39V46.3h.8994V68.65Zm19.53,0V49.06a7.7667,7.7667,0,0,0-1.65-5.28,5.6644,5.6644,0,0,0-4.5-1.89,5.6071,5.6071,0,0,0-4.4248,1.89A7.1729,7.1729,0,0,0,223.37,48.7l-3.2392-2.16a10.5509,10.5509,0,0,1,1.56-5.67,11.1918,11.1918,0,0,1,4.2149-3.9751A12.1888,12.1888,0,0,1,231.86,35.44a11.1676,11.1676,0,0,1,6.0751,1.545,9.58,9.58,0,0,1,3.66,4.2,14.228,14.228,0,0,1,1.2148,5.9848V68.65Zm19.44,0V48.97a7.6145,7.6145,0,0,0-1.65-5.2046,5.6518,5.6518,0,0,0-4.47-1.875,6.1384,6.1384,0,0,0-3.12.795,5.6442,5.6442,0,0,0-2.19,2.34,7.8178,7.8178,0,0,0-.81,3.6748l-3.21-1.89a11.0545,11.0545,0,0,1,1.5146-5.9253,10.88,10.88,0,0,1,4.1856-4.0049,12.0743,12.0743,0,0,1,5.88-1.44q5.37,0,8.2343,3.2251A12.2855,12.2855,0,0,1,262.28,47.14V68.65Z" transform="translate(-3.4722 -0.3721)" style="fill:#fff"/><path d="M279.14,69.55a12.1882,12.1882,0,0,1-5.9394-1.335,9.1285,9.1285,0,0,1-3.6758-3.5551,9.8209,9.8209,0,0,1-1.2441-4.89,10.8912,10.8912,0,0,1,.7793-4.2153,8.4379,8.4379,0,0,1,2.4-3.24,12.8074,12.8074,0,0,1,4.2-2.2348,39.5462,39.5462,0,0,1,4.5752-1.14q2.6235-.51,5.6992-.9448T292.37,47.05l-2.58,1.47q.0294-3.36-1.5-4.95t-5.16-1.59A9.3546,9.3546,0,0,0,278.8994,43a5.6619,5.6619,0,0,0-2.85,3.51l-6.6-2.07a12.2348,12.2348,0,0,1,4.5742-6.6q3.375-2.4894,9.1055-2.49a19.1477,19.1477,0,0,1,7.6055,1.41,9.4389,9.4389,0,0,1,4.875,4.62,9.864,9.864,0,0,1,1.05,3.4951,38.8492,38.8492,0,0,1,.18,3.8848V68.65h-6.33V61.63l1.05,1.14a14.4693,14.4693,0,0,1-5.1143,5.145A14.816,14.816,0,0,1,279.14,69.55Zm1.4405-5.76a9.3093,9.3093,0,0,0,4.2-.87,8.3619,8.3619,0,0,0,2.7744-2.13,7.4869,7.4869,0,0,0,1.3955-2.37,9.2911,9.2911,0,0,0,.6445-3.165q.0747-1.7843.0752-2.895l2.22.66q-3.2694.5106-5.6093.9t-4.0205.7349a27.7168,27.7168,0,0,0-2.97.7651,9.1715,9.1715,0,0,0-2.13,1.05,4.4621,4.4621,0,0,0-1.335,1.38,3.5,3.5,0,0,0-.4648,1.83,3.7652,3.7652,0,0,0,.6,2.1152,4.1051,4.1051,0,0,0,1.7548,1.4551A6.75,6.75,0,0,0,280.58,63.79Z" transform="translate(-3.4722 -0.3721)" style="fill:#fff"/><path d="M317.2383,68.65V25.45h7.2305v43.2Z" transform="translate(-3.4722 -0.3721)" style="fill:#fff"/><path d="M329.8682,41.92V36.25H352.459v5.67ZM352.459,68.65a30.1716,30.1716,0,0,1-6.2852.5249,14.48,14.48,0,0,1-5.5049-1.14,7.528,7.528,0,0,1-3.69-3.375,9.6555,9.6555,0,0,1-1.17-4.29q-.06-2.19-.06-4.95V27.25h7.1992V55q0,1.95.045,3.42a4.8289,4.8289,0,0,0,.6152,2.4,4.1863,4.1863,0,0,0,3.45,2.01,23.156,23.156,0,0,0,5.4-.24Z" transform="translate(-3.4722 -0.3721)" style="fill:#fff"/><path d="M372.5283,69.55a17.08,17.08,0,0,1-8.64-2.13,15.0563,15.0563,0,0,1-5.8047-5.91,17.7087,17.7087,0,0,1-2.085-8.7,19.7,19.7,0,0,1,2.04-9.2251,14.9138,14.9138,0,0,1,5.67-6.0752,16.1077,16.1077,0,0,1,8.3994-2.16,15.0692,15.0692,0,0,1,8.5654,2.355,13.9618,13.9618,0,0,1,5.2344,6.645,22.7115,22.7115,0,0,1,1.29,10.11h-7.17V51.82q-.0292-5.2793-1.8594-7.71t-5.7607-2.43q-4.44,0-6.6,2.7451t-2.16,8.0249q0,4.92,2.16,7.62a7.59,7.59,0,0,0,6.3,2.7,8.6471,8.6471,0,0,0,4.6055-1.185,7.7442,7.7442,0,0,0,2.9843-3.4351l7.1407,2.16a14.5022,14.5022,0,0,1-5.7451,6.81A15.8389,15.8389,0,0,1,372.5283,69.55Zm-11.16-15.09V49h22.29v5.46Z" transform="translate(-3.4722 -0.3721)" style="fill:#fff"/><path d="M393.918,68.65V36.25h6.39v7.89l-.78-1.02a11.5735,11.5735,0,0,1,1.6055-2.9551,8.7488,8.7488,0,0,1,2.4151-2.205,10.3273,10.3273,0,0,1,2.6552-1.2749,12.8561,12.8561,0,0,1,5.9551-.4351V43a9.2154,9.2154,0,0,0-3.3154-.27,7.6489,7.6489,0,0,0-3.375,1.05,7.39,7.39,0,0,0-2.4453,2.07,8.5861,8.5861,0,0,0-1.3946,2.8647,12.8017,12.8017,0,0,0-.45,3.4649V68.65Z" transform="translate(-3.4722 -0.3721)" style="fill:#fff"/><path d="M426.167,69.55a12.1886,12.1886,0,0,1-5.9395-1.335,9.1276,9.1276,0,0,1-3.6757-3.5551,9.821,9.821,0,0,1-1.2442-4.89,10.8931,10.8931,0,0,1,.7793-4.2153,8.4379,8.4379,0,0,1,2.4-3.24,12.8085,12.8085,0,0,1,4.2-2.2348,39.5462,39.5462,0,0,1,4.5752-1.14q2.6235-.51,5.6992-.9448t6.4356-.9453l-2.58,1.47q.0292-3.36-1.5-4.95-1.5308-1.5892-5.16-1.59a9.3541,9.3541,0,0,0-4.23,1.02,5.6624,5.6624,0,0,0-2.85,3.51l-6.6-2.07a12.235,12.235,0,0,1,4.5743-6.6q3.375-2.4894,9.1054-2.49a19.1474,19.1474,0,0,1,7.6055,1.41,9.4389,9.4389,0,0,1,4.875,4.62,9.862,9.862,0,0,1,1.05,3.4951,38.8478,38.8478,0,0,1,.18,3.8848V68.65h-6.33V61.63l1.05,1.14a14.4683,14.4683,0,0,1-5.1142,5.145A14.8162,14.8162,0,0,1,426.167,69.55Zm1.44-5.76a9.3087,9.3087,0,0,0,4.2-.87,8.3609,8.3609,0,0,0,2.7744-2.13,7.485,7.485,0,0,0,1.3955-2.37,9.2911,9.2911,0,0,0,.6446-3.165q.0747-1.7843.0752-2.895l2.22.66q-3.27.5106-5.6094.9t-4.02.7349a27.7207,27.7207,0,0,0-2.97.7651,9.17,9.17,0,0,0-2.13,1.05,4.4621,4.4621,0,0,0-1.335,1.38,3.5008,3.5008,0,0,0-.4648,1.83,3.7652,3.7652,0,0,0,.6,2.1152,4.1054,4.1054,0,0,0,1.7549,1.4551A6.7491,6.7491,0,0,0,427.6074,63.79Z" transform="translate(-3.4722 -0.3721)" style="fill:#fff"/><g id="ff0c42a2-b558-4f1c-b19d-00b55169c623" data-name="Слой 1"><g style="opacity:0.30000001192092896"><path d="M29.2065,5.0975C24.32,11.1511,24.8344,20.1719,26.8713,28.2c.1341.0268.3772.0754.6806.1475,4.4442,1.0914,7.79,4.26,8.9823,5.3948,6.8214,6.486,10.9034,18.6518,15.004,31.1412l.233.7091c4.6789,1.9966,9.336,2.295,13.9411,2.4409C65.025,48.6074,58.1617,9.7312,43.4008,1.9006A13.6557,13.6557,0,0,0,35.4328.4538,16.2715,16.2715,0,0,0,29.2065,5.0975Z" transform="translate(-3.4722 -0.3721)" style="fill:#26e79a"/><path d="M80.7918,93.4232a28.8509,28.8509,0,0,1-9.0628-7.3427A27.4064,27.4064,0,0,1,66.23,73.4738,116.0633,116.0633,0,0,0,52.7,68.6c3.1282,10.5313,4.979,20.5194,13.4852,26.8463a24.3553,24.3553,0,0,0,4.4844,2.64c4.6085-.813,8.1608-2.461,10.134-4.6588Z" transform="translate(-3.4722 -0.3721)" style="fill:#26e79a"/></g><path d="M35.4328.4538a16.8339,16.8339,0,0,0-6.2263,4.6437C18.687,17.9741,33.3054,44.0257,34.3783,45.8933c3.1852,5.5322,5.9329,10.315,11.5673,14.5849C60.9228,71.8275,74.4113,62.9928,87.94,74.141,93.73,78.9255,98.7932,87.18,97.2458,93.14c-1.7736,6.8264-12.6586,10.1407-26.578,4.9387C78.15,96.7593,82.842,93.2271,82.547,88.7644a10.5965,10.5965,0,0,0-2.6941-5.6881c-7.8506-9.5271-23.23-13.0476-30.87-15.6812-21.5018-7.42-45.3154-29.9694-45.51-44.7421C3.2522,5.8553,33.6055.7321,35.4328.4538Z" transform="translate(-3.4722 -0.3721)" style="fill:#26e79a"/></g></svg>